# xmcd CD database file
#
# Track frame offsets:
#	150
#	26725
#	48778
#	75331
#	92371
#	122949
#	142655
#	168011
#	186085
#	206492
#
# Disc length: 3007 seconds
#
# Revision: 0
# Processed by: cddbd v1.5.2PL0 Copyright (c) Steve Scherf et al.
# Submitted via: CDex 1.70beta2
#
DISCID=6e0bbd0a
DTITLE=Roots'n Boots Band - Blues And More
DYEAR=2007
DGENRE=Blues
TTITLE0=Firing Line
TTITLE1=Do You Read Me
TTITLE2=Nothin' But The Blues
TTITLE3=Waiting In The Wings
TTITLE4=Oh Pretty Woman
TTITLE5=Call Me For President
TTITLE6=Dangerous Mood
TTITLE7=Key To The Highway
TTITLE8=King Of The Blues
TTITLE9=Worried Life Blues
EXTD=YEAR: 2007
EXTT0=
EXTT1=
EXTT2=
EXTT3=
EXTT4=
EXTT5=
EXTT6=
EXTT7=
EXTT8=
EXTT9=
PLAYORDER=
